PathFileType	4	(X/Y/Z)	Patient4_TMGait_0pt3_02_left_16.trc.trc
DataRate	CameraRate	NumFrames	NumMarkers	Units	OrigDataRate	OrigDataStartFrame	OrigNumFrames
50.359712230216	50.359712230216	4	33	mm	50.359712230216	18	       141
Frame#	Time	Sacral			L.Shoulder			Chest			R.Shoulder			Neck			R.ASIS			L.ASIS			R.Thigh.Superior			R.Thigh.Lateral			R.Thigh.Inferior			R.Patella			L.Thigh.Superior			L.Thigh.Lateral			L.Thigh.Inferior			L.Patella			L.Shank.Superior			L.Shank.Lateral			L.Shank.Inferior			R.Shank.Superior			R.Shank.Lateral			R.Shank.Inferior			R.Heel			R.Midfoot.Superior			R.Midfoot.Lateral			R.Toe			L.Heel			L.Midfoot.Lateral			L.Midfoot.Superior			L.Toe			L.Elbow			L.Wrist			R.Elbow			R.Wrist			
		X1	Y1	Z1	X2	Y2	Z2	X3	Y3	Z3	X4	Y4	Z4	X5	Y5	Z5	X6	Y6	Z6	X7	Y7	Z7	X8	Y8	Z8	X9	Y9	Z9	X10	Y10	Z10	X11	Y11	Z11	X12	Y12	Z12	X13	Y13	Z13	X14	Y14	Z14	X15	Y15	Z15	X16	Y16	Z16	X17	Y17	Z17	X18	Y18	Z18	X19	Y19	Z19	X20	Y20	Z20	X21	Y21	Z21	X22	Y22	Z22	X23	Y23	Z23	X24	Y24	Z24	X25	Y25	Z25	X26	Y26	Z26	X27	Y27	Z27	X28	Y28	Z28	X29	Y29	Z29	X30	Y30	Z30	X31	Y31	Z31	X32	Y32	Z32	X33	Y33	Z33	

18	31.227571428571	699.946033428515	1006.484463549119	566.823018024879	879.989015830571	1419.880375257205	356.724931902074	998.071048015151	1350.174761192579	506.516403440278	942.830129513677	1433.618881734526	686.822711600121	886.656732791161	1487.459719370227	512.826718617471	936.696402997853	929.268602422768	657.017317231238	895.712677844684	958.781000863450	386.337497588765	964.723616093752	726.439414051460	612.057654543127	883.966691478261	615.545967087785	668.452620543236	952.015700464284	566.621206183994	578.371719368483	948.102709441498	474.399528587178	578.970132607827	973.560049748858	772.880933837200	414.633757630002	926.426303163323	648.753300617392	333.481259587738	1025.477492009334	588.546070534019	399.746219442272	1049.729513378017	520.778764902845	393.615725316759	1028.334879338080	448.114607196425	379.385814630108	954.940756840428	325.217615533580	319.441520789502	1032.178441016038	216.890965260715	373.776318749387	904.023053573812	389.023695786737	584.039042068193	820.980331809291	292.609605232814	643.432380749334	844.193883564506	197.389397882643	573.685838225254	688.889598549642	43.827173463992	538.778699934110	860.084880534474	95.478913435298	578.572121283385	769.801190138014	37.439334887867	615.271063567335	978.319023305632	41.112034563938	612.024240188764	933.104018312852	41.394658059754	402.344758629204	1010.889605620914	44.170893668672	325.817944769792	1085.286998409620	118.164604272180	351.024718509477	1218.377736417451	83.214200616101	329.541133298375	760.829179511343	1080.456329686910	268.476055938735	746.436786797860	820.546335385528	291.837984539565	1044.343064357436	1110.292803765183	815.849020747704	1293.575330810662	1100.345706280434	765.346855319379	
19	31.247428571429	700.163873502147	1008.286379029431	566.553413446544	878.700044726756	1421.210008813524	355.288733054309	998.453422447453	1350.978562233631	503.538036431713	945.581268293160	1434.921060440593	684.288907766613	887.124846051630	1488.377323790264	511.116977067508	936.603561376208	929.741786920268	655.856966172191	895.096404604157	959.363840182248	385.346014819267	961.070634001115	726.015917305456	611.595154022772	878.717361151518	616.378847617089	668.796455483989	945.547936626492	566.300955782644	578.702275431393	940.246578414283	474.803842087849	579.444958822231	971.065331308459	771.833500429631	413.804172821885	921.613893163987	648.158876402923	332.949534080122	1020.009707799258	587.338001317544	398.957202471070	1042.993628958796	520.724057436089	393.714735718229	1024.395556391423	448.407625047599	379.267629694078	955.627781333471	322.899734008550	318.774200697824	1035.931754258415	217.354253594746	374.159676082725	896.765940486515	389.575659150488	584.522891492605	814.093025130939	292.875718049936	643.987674336967	837.605136297066	197.784125509594	574.049694631120	682.801609353313	43.786501523519	538.901368269442	854.072946243583	95.517388304734	578.788415275538	763.751625637224	37.393253944122	615.378154850060	972.246939565119	41.141357875598	612.004362934504	941.912932346190	39.622606446401	402.050512282832	1020.589020453477	43.525091633311	326.410636142073	1092.861312049227	119.379548402592	352.200737809669	1227.078175166600	87.295020426461	332.639607120942	747.438921099821	1087.062797264500	267.615228416949	724.795892973325	828.389001255224	292.649652032594	1057.601471889413	1116.860743509160	812.916812084691	1304.993760293811	1126.018145885201	756.265579370945	
20	31.267285714286	700.561125934101	1009.742981524613	565.994440469439	877.721226508488	1422.247965101894	353.575210580347	998.923173825434	1351.531986927218	500.465256362044	948.105652450385	1435.968208441246	681.526869599368	887.640534443889	1489.036076421278	509.126668547811	936.701295430794	930.090277689134	654.508164426755	894.690564393568	959.566065016253	384.152313896694	957.708665220950	725.509432134831	611.004689751583	873.762843449858	617.116762017554	669.004545032222	939.369206956556	565.896702382521	578.952677147391	932.660732599826	475.120408622932	579.835088870563	968.898167974187	770.459427202591	412.717227303261	916.831577771071	647.144318317973	332.551387767438	1014.747490707848	585.800552977504	398.108992348222	1036.195169429354	520.042498782715	393.760528798636	1019.930964879695	448.062598671031	379.143513707526	954.645344763131	320.710748543687	318.655404064715	1037.319228730993	217.515171226816	374.796840118215	889.751756631447	390.037257273204	584.926205372061	807.361808772422	293.127690785801	644.471092342745	831.127768860513	198.121769635062	574.371648384870	676.710227083336	43.732693002422	539.004971401493	848.063642454700	95.551446928755	578.992256524497	757.705062708577	37.336786929901	615.478193663429	966.178912965590	41.167608229206	611.990297066664	947.227360285700	38.564027625361	402.579309972367	1026.327471625645	43.255647272449	327.399323502984	1097.148567691164	120.172987328914	353.539988802042	1231.953893435056	89.962957934212	335.031819697950	735.779205770610	1093.270273743078	266.626651699400	705.794310120555	835.913876985570	293.240801460191	1070.292520537104	1123.384132315491	809.568849247268	1314.473142955902	1150.597155315191	747.248393597599	
21	31.287142857143	701.135065186552	1010.799837689558	565.173027964350	877.068308376582	1422.913801419116	351.555173894844	999.491300217741	1351.788798546154	497.295947795655	950.390125150753	1436.717857700646	678.538551079956	888.216381676244	1489.392149970564	506.831141306817	937.008571856464	930.281576457857	652.983153215574	894.476056739093	959.351203813664	382.761939104312	954.722895990503	724.896504483541	610.284271487045	869.207198823448	617.715610320742	669.049408565840	933.596097533203	565.383858687234	579.090213676707	925.480708422977	475.303991105355	580.103383092595	967.024878394146	768.738928863687	411.348140127521	912.106197445156	645.716128695250	332.223265925352	1009.700667163195	583.917466873542	397.169435377646	1029.482036130234	518.778965853516	393.683224245012	1015.102531931160	447.103508751275	378.975294340422	952.225956231112	318.519710070726	318.952138851502	1036.676061867739	217.210555635923	375.590094701912	883.075155807909	390.367792902209	585.217336357877	800.856017340181	293.348909163053	644.853205060572	824.803524394807	198.377865346592	574.633885795572	670.622504904660	43.666179477215	539.089546617172	842.053663588811	95.565639005696	579.151550811385	751.662909981868	37.270020332719	615.563811230417	960.119303710504	41.186502704983	611.983004958298	949.388500815480	37.924514187090	403.725975354080	1028.548937846929	43.050948675143	328.646587821784	1098.618862921753	120.280409763464	354.986178032963	1233.577433492527	90.929844585870	336.794976160340	725.967017724130	1098.796870092946	265.533924320768	689.417831010422	842.713552146720	293.617275258471	1082.276850136736	1129.689631505102	805.821722533269	1322.141835955034	1173.682747597542	738.360276116339	
